<svg xmlns="http://www.w3.org/2000/svg" width="52.622" height="49.333" viewBox="0 0 52.622 49.333"><defs><style>.a{fill:#dce4ec;}.b{fill:#b5c4d2;}.c{fill:#f2f8ff;}.d{fill:#dfedfc;}.e{fill:#ccd7e2;}.f{fill:#a2b4c5;}</style></defs><path class="a" d="M52.622,20.625V46.833l-3.083,3.083H3.361L0,46.833V20.625A4.619,4.619,0,0,1,4.625,16H48A4.619,4.619,0,0,1,52.622,20.625Z" transform="translate(0 -16)"/><path class="b" d="M282.311,20.625V46.833l-3.083,3.083H256V16h21.686A4.619,4.619,0,0,1,282.311,20.625Z" transform="translate(-229.689 -16)"/><path class="c" d="M76.456,47.542V76.833H30V47.542A1.527,1.527,0,0,1,31.542,46H74.914A1.527,1.527,0,0,1,76.456,47.542Z" transform="translate(-26.917 -42.917)"/><path class="d" d="M279.228,47.542V76.833H256V46h21.686A1.527,1.527,0,0,1,279.228,47.542Z" transform="translate(-229.689 -42.917)"/><path class="e" d="M173.3,386.3H151.9l3.083-9.25A1.5,1.5,0,0,1,156.433,376h12.333a1.5,1.5,0,0,1,1.449,1.048Z" transform="translate(-136.289 -339)"/><path class="f" d="M263.616,377.048l3.083,9.25H256V376h6.167A1.5,1.5,0,0,1,263.616,377.048Z" transform="translate(-229.689 -339)"/><path class="a" d="M52.622,316v4.625A4.619,4.619,0,0,1,48,325.25H4.625A4.619,4.619,0,0,1,0,320.625V316Z" transform="translate(0 -285.167)"/><path class="b" d="M282.311,316v4.625a4.619,4.619,0,0,1-4.625,4.625H256V316Z" transform="translate(-229.689 -285.167)"/><path class="a" d="M124.917,467.542a1.527,1.527,0,0,1-1.542,1.542H92.542a1.542,1.542,0,1,1,0-3.083h30.833A1.527,1.527,0,0,1,124.917,467.542Z" transform="translate(-81.647 -419.75)"/><path class="b" d="M272.958,467.542a1.527,1.527,0,0,1-1.542,1.542H256V466h15.417A1.527,1.527,0,0,1,272.958,467.542Z" transform="translate(-229.689 -419.75)"/></svg>