<svg xmlns="http://www.w3.org/2000/svg" width="39.609" height="52" viewBox="0 0 39.609 52"><defs><style>.a{fill:#dce4ec;}.b{fill:#b5c4d2;}.c{fill:#ffc380;}.d{fill:#ffb766;}.e{fill:#ffdbb3;}.f{fill:#ffcf99;}.g{fill:#4da6ff;}.h{fill:#4596e6;}.i{fill:#54ccff;}.j{fill:#4bb8e6;}.k{fill:#ffde33;}.l{fill:#ffbc33;}.m{fill:#f9bc35;}.n{fill:#f39e31;}</style></defs><path class="a" d="M95.826,291.833,88.726,289l-4.3,1.341H77.179L72.883,289l-7.1,2.834A7.612,7.612,0,0,0,61,298.9v11.223a1.509,1.509,0,0,0,1.523,1.523H99.086a1.509,1.509,0,0,0,1.523-1.523V298.9A7.612,7.612,0,0,0,95.826,291.833Z" transform="translate(-61 -259.648)"/><path class="b" d="M271.021,291.833l-7.1-2.834-4.3,1.341H256v21.308h18.281a1.509,1.509,0,0,0,1.523-1.523V298.9A7.612,7.612,0,0,0,271.021,291.833Z" transform="translate(-236.195 -259.648)"/><path class="c" d="M193.845,272.828l-6.855,6.855a1.472,1.472,0,0,1-2.133,0L178,272.828l4.3-1.706a1.322,1.322,0,0,1,.579-.122h6.094a1.322,1.322,0,0,1,.579.122Z" transform="translate(-166.118 -243.477)"/><path class="d" d="M259.047,271H256v9.141a1.428,1.428,0,0,0,1.066-.457l6.855-6.855-4.3-1.706A1.322,1.322,0,0,0,259.047,271Z" transform="translate(-236.195 -243.477)"/><path class="e" d="M171.72,160.99H151.608a10.664,10.664,0,1,0,20.111,0Z" transform="translate(-141.859 -144.639)"/><path class="f" d="M256,160.99v14.22a10.668,10.668,0,0,0,10.056-14.22Z" transform="translate(-236.195 -144.639)"/><path class="g" d="M170.8,12.289H152.523A1.523,1.523,0,0,1,151,10.766V7.719A7.714,7.714,0,0,1,158.617,0h6.094a7.714,7.714,0,0,1,7.617,7.719v3.047A1.523,1.523,0,0,1,170.8,12.289Z" transform="translate(-141.859)"/><path class="h" d="M259.047,0H256V12.289h9.141a1.523,1.523,0,0,0,1.523-1.523V7.719A7.714,7.714,0,0,0,259.047,0Z" transform="translate(-236.195)"/><path class="i" d="M146.9,100.141H122.523A1.523,1.523,0,0,1,121,98.617,7.626,7.626,0,0,1,128.617,91H140.8a7.626,7.626,0,0,1,7.617,7.617A1.523,1.523,0,0,1,146.9,100.141Z" transform="translate(-114.906 -81.758)"/><path class="j" d="M262.094,91H256v9.141h12.188a1.523,1.523,0,0,0,1.523-1.523A7.626,7.626,0,0,0,262.094,91Z" transform="translate(-236.195 -81.758)"/><path class="k" d="M148.422,367.094l-3.208-5.252a1.524,1.524,0,0,0-1.363-.842H125.57a1.524,1.524,0,0,0-1.363.842L121,367.094l2.285,3.148h22.851Z" transform="translate(-114.906 -324.336)"/><path class="l" d="M265.141,361H256v9.242h11.425l2.286-3.148-3.208-5.252A1.524,1.524,0,0,0,265.141,361Z" transform="translate(-236.195 -324.336)"/><path class="m" d="M146.9,430.242H122.523A1.523,1.523,0,0,1,121,428.719V421h27.422v7.719A1.523,1.523,0,0,1,146.9,430.242Z" transform="translate(-114.906 -378.242)"/><path class="n" d="M256,430.242h12.188a1.523,1.523,0,0,0,1.523-1.523V421H256Z" transform="translate(-236.195 -378.242)"/></svg>