<svg xmlns="http://www.w3.org/2000/svg" width="63" height="32.97" viewBox="0 0 63 32.97"><defs><style>.a{fill:#b5c4d2;}.b{fill:#dce4ec;}.c{fill:#bddeff;}.d{fill:#d7ebff;}.e{fill:#f39e31;}.f{fill:#f9bc35;}.g{fill:#4596e6;}.h{fill:#4da6ff;}.i{fill:#132033;}.j{fill:#24344d;}</style></defs><path class="a" d="M359.533,170.716l-5.517-9.565a2.011,2.011,0,0,0-1.742-1.006H341.723a2.011,2.011,0,0,0-2.011,2.011V179.9a2.011,2.011,0,1,0,4.023,0v-.015l12.046-.092a2.011,2.011,0,0,0,4.022-.015v-8.056A2.012,2.012,0,0,0,359.533,170.716Z" transform="translate(-297.912 -155.455)"/><path class="b" d="M349.775,160.145h-8.052a2.011,2.011,0,0,0-2.011,2.011V179.9a2.011,2.011,0,1,0,4.023,0v-.015l6.014-.092Z" transform="translate(-297.912 -155.455)"/><path class="c" d="M359.533,170.716l-5.517-9.565a2.011,2.011,0,0,0-1.742-1.006H341.723a2.011,2.011,0,0,0-2.011,2.011v8.81h19.943A2.013,2.013,0,0,0,359.533,170.716Z" transform="translate(-297.912 -155.455)"/><path class="d" d="M349.758,160.145h-8.034a2.011,2.011,0,0,0-2.011,2.011v8.81h10.045Z" transform="translate(-297.913 -155.455)"/><path class="e" d="M54.71,122.027H14.438a2.011,2.011,0,0,0-2.011,2.011V147.7a2.011,2.011,0,0,0,4.023,0H52.7a2.011,2.011,0,0,0,4.023,0V124.038A2.011,2.011,0,0,0,54.71,122.027Z" transform="translate(-10.898 -122.027)"/><path class="f" d="M34.574,122.027H14.438a2.011,2.011,0,0,0-2.011,2.011V147.7a2.011,2.011,0,0,0,4.023,0H34.574V122.027Z" transform="translate(-10.898 -122.027)"/><path class="g" d="M60.988,318.352H2.011a2.011,2.011,0,0,1,0-4.023H60.989a2.011,2.011,0,1,1,0,4.023Z" transform="translate(0 -290.667)"/><path class="h" d="M23.676,318.352H2.011a2.011,2.011,0,0,1,0-4.023H23.676v4.023Z" transform="translate(0 -290.667)"/><path class="i" d="M73.424,295.408a6.634,6.634,0,1,1,6.634-6.634A6.642,6.642,0,0,1,73.424,295.408Z" transform="translate(-58.572 -262.438)"/><path class="j" d="M73.424,295.408a6.634,6.634,0,1,1,0-13.269Z" transform="translate(-58.572 -262.438)"/><circle class="a" cx="2.673" cy="2.673" r="2.673" transform="translate(12.179 23.662)"/><path class="b" d="M101.651,319.677a2.673,2.673,0,0,1,0-5.347Z" transform="translate(-86.799 -290.668)"/><path class="i" d="M374.21,295.408a6.634,6.634,0,1,1,6.634-6.634A6.642,6.642,0,0,1,374.21,295.408Z" transform="translate(-322.347 -262.438)"/><path class="j" d="M374.21,295.408a6.634,6.634,0,0,1,0-13.269Z" transform="translate(-322.347 -262.438)"/><circle class="a" cx="2.673" cy="2.673" r="2.673" transform="translate(49.19 23.662)"/><path class="b" d="M402.439,319.677a2.673,2.673,0,0,1,0-5.347Z" transform="translate(-350.576 -290.668)"/></svg>