<svg xmlns="http://www.w3.org/2000/svg" width="45" height="59.196" viewBox="0 0 45 59.196"><defs><style>.a{fill:#dce4ec;}.b{fill:#b5c4d2;}.c{fill:#ffbc33;}.d{fill:#ffde33;}.e{fill:#f9bc35;}.f{fill:#f39e31;}</style></defs><g transform="translate(0.235)"><path class="a" d="M229.469,0A3.468,3.468,0,0,0,226,3.468V34.916h6.937V3.468A3.468,3.468,0,0,0,229.469,0Z" transform="translate(-206.927)"/><path class="b" d="M259.468,3.468A3.468,3.468,0,0,0,256,0V34.916h3.468Z" transform="translate(-233.459)"/><path class="c" d="M227.734,377,226,392.608h6.893l4.429-2.856L238.14,377Z" transform="translate(-206.927 -333.413)"/><path class="d" d="M152.734,377,151,392.608h6.893l4.3-1.917L163.14,377Z" transform="translate(-140.598 -333.413)"/><path class="e" d="M110.077,242a12.14,12.14,0,0,0-12.14,12.14v10.406a5.208,5.208,0,0,1-5.2,5.2,1.734,1.734,0,1,0,0,3.468h5.2a5.208,5.208,0,0,0,5.2-5.2v-6.937a1.734,1.734,0,0,1,3.469,0v6.937a8.588,8.588,0,0,1-1.779,5.2h1.779a5.255,5.255,0,0,0,5.2-5.2v-6.937a1.734,1.734,0,0,1,3.468,0v6.937a8.587,8.587,0,0,1-1.779,5.2h.044a8.681,8.681,0,0,0,8.671-8.671V254.14A12.14,12.14,0,0,0,110.077,242Z" transform="translate(-87.535 -214.021)"/><g transform="translate(22.541 25.089)"><path class="f" d="M257.734,268.014v-6.937a1.734,1.734,0,0,1,3.468,0v6.937a8.588,8.588,0,0,1-1.779,5.2h.044a8.681,8.681,0,0,0,8.671-8.671V254.14A12.14,12.14,0,0,0,256,242v29.863A5.172,5.172,0,0,0,257.734,268.014Z" transform="translate(-256 -239.11)"/><ellipse class="c" cx="2" cy="1" rx="2" ry="1" transform="translate(11.224 0.411)"/><circle class="c" cx="2" cy="2" r="2" transform="translate(15.224 19.411)"/><ellipse class="c" cx="1.5" cy="2" rx="1.5" ry="2" transform="translate(19.224 9.411)"/></g><ellipse class="d" cx="2" cy="1" rx="2" ry="1" transform="translate(6.765 25.5)"/><circle class="d" cx="2" cy="2" r="2" transform="translate(-0.235 34.5)"/><ellipse class="d" cx="1.5" cy="2" rx="1.5" ry="2" transform="translate(3.765 44.5)"/></g></svg>