<svg xmlns="http://www.w3.org/2000/svg" width="56" height="49.547" viewBox="0 0 56 49.547"><defs><style>.a{fill:#212a2d;}.b{fill:#2e373a;}.c{fill:#dce4ec;}.d{fill:#b5c4d2;}.e{fill:#f2f8ff;}.f{fill:#dfedfc;}.g{fill:#93a6b8;}.h{fill:#9dafc0;}.i{fill:#f9bc35;}.j{fill:#f39e31;}.k{fill:#ffde33;}.l{fill:#ffbc33;}</style></defs><g transform="translate(0.001)"><path class="a" d="M433.614,0a1.641,1.641,0,0,0-1.641,1.641V9.3h3.281V1.641A1.64,1.64,0,0,0,433.614,0Zm0,0" transform="translate(-384.727)"/><path class="b" d="M384.34,0A1.64,1.64,0,0,0,382.7,1.641V9.3h3.281V1.641A1.64,1.64,0,0,0,384.34,0Zm0,0" transform="translate(-340.842)"/><path class="c" d="M164.088,194.328v21.579a6.717,6.717,0,0,1-13.433,0v-2.556a3.212,3.212,0,0,0-6.424,0v2.422a6.855,6.855,0,0,1-6.849,6.847h0a6.848,6.848,0,0,1-6.849-6.846V203.16h3.281v12.614a3.568,3.568,0,0,0,7.137,0v-2.422a6.493,6.493,0,0,1,12.987,0v2.556a3.435,3.435,0,0,0,6.871,0V194.328Zm0,0" transform="translate(-116.255 -173.073)"/><path class="d" d="M301.794,194.328v21.579a6.717,6.717,0,0,1-13.433,0v-2.556a3.215,3.215,0,0,0-3.212-3.209V206.86a6.5,6.5,0,0,1,6.494,6.49v2.556a3.436,3.436,0,0,0,6.871,0V194.328Zm0,0" transform="translate(-253.961 -173.073)"/><path class="c" d="M31.835,5.966V25.852a5.974,5.974,0,0,1-5.966,5.966H5.966A5.973,5.973,0,0,1,0,25.852V5.966A5.973,5.973,0,0,1,5.966,0h19.9a5.974,5.974,0,0,1,5.966,5.966Zm0,0" transform="translate(0 0)"/><path class="d" d="M161.449,5.967V25.852a5.974,5.974,0,0,1-5.966,5.966h-9.952V0h9.952a5.974,5.974,0,0,1,5.966,5.966Zm0,0" transform="translate(-129.614 -0.001)"/><path class="e" d="M73.005,62.821A10.161,10.161,0,0,1,62.853,72.968h0a10.148,10.148,0,1,1,0-20.3h0A10.161,10.161,0,0,1,73.005,62.821Zm0,0" transform="translate(-46.935 -46.911)"/><path class="f" d="M155.691,62.821a10.161,10.161,0,0,1-10.152,10.148v-20.3a10.161,10.161,0,0,1,10.152,10.149Zm0,0" transform="translate(-129.621 -46.911)"/><path class="g" d="M156.809,120.4a1.641,1.641,0,0,0-1.641,1.641v2.2a1.641,1.641,0,1,0,3.281,0v-2.2A1.64,1.64,0,0,0,156.809,120.4Zm0,0" transform="translate(-138.197 -107.233)"/><path class="h" d="M107.536,120.4a1.641,1.641,0,0,0-1.641,1.641v2.2a1.641,1.641,0,1,0,3.281,0v-2.2A1.641,1.641,0,0,0,107.536,120.4Zm0,0" transform="translate(-94.313 -107.233)"/><path class="i" d="M367.9,85.039v8.526a5.074,5.074,0,0,1-5.069,5.068h-5.1a5.074,5.074,0,0,1-5.068-5.068V85.039Zm0,0" transform="translate(-314.089 -75.738)"/><path class="j" d="M429.962,85.039v8.526a5.074,5.074,0,0,1-5.069,5.068H422.34V85.039Zm0,0" transform="translate(-376.147 -75.738)"/><path class="k" d="M352.286,71.68a1.641,1.641,0,0,1-1.641,1.641H334.313a1.641,1.641,0,1,1,0-3.281h16.333A1.641,1.641,0,0,1,352.286,71.68Zm0,0" transform="translate(-296.287 -62.379)"/><path class="l" d="M432.146,71.68a1.641,1.641,0,0,1-1.641,1.641H422.34V70.039h8.166A1.641,1.641,0,0,1,432.146,71.68Zm0,0" transform="translate(-376.147 -62.379)"/></g></svg>