<svg xmlns="http://www.w3.org/2000/svg" width="55.312" height="49.996" viewBox="0 0 55.312 49.996"><defs><style>.a{fill:#fcfcfc;}.b{fill:#b5c4d2;}.c{fill:#dfedfc;}.d{fill:#93a6b8;}.e{fill:#f2f8ff;}.f{fill:#dce4ec;}.g{fill:#f9bc35;}.h{fill:#f39e31;}</style></defs><rect class="a" width="48.223" height="32.287" transform="translate(3.555 14.175)"/><path class="b" d="M53.545,24.6H1.768A1.767,1.767,0,0,0,0,26.373V72.834A1.767,1.767,0,0,0,1.768,74.6H53.545a1.767,1.767,0,0,0,1.767-1.768V26.373A1.768,1.768,0,0,0,53.545,24.6ZM51.777,71.066H3.535V38.78H51.777Z" transform="translate(0 -24.605)"/><path class="c" d="M280.121,155.815H256v2.407h2.3a1.386,1.386,0,0,1,1.386,1.386V161.2a11.2,11.2,0,0,1,1.551.643l1.123-1.123a1.386,1.386,0,0,1,1.96,0l3.039,3.039a1.386,1.386,0,0,1,0,1.96l-1.123,1.123a11.228,11.228,0,0,1,.643,1.551h1.588a1.386,1.386,0,0,1,1.386,1.386v4.3a1.386,1.386,0,0,1-1.386,1.386h-1.588a11.189,11.189,0,0,1-.643,1.551l1.123,1.123a1.386,1.386,0,0,1,0,1.96l-3.039,3.039a1.386,1.386,0,0,1-1.96,0l-1.123-1.123a11.232,11.232,0,0,1-1.551.643v1.588a1.386,1.386,0,0,1-1.386,1.386H256V188.1h24.121Z" transform="translate(-228.344 -141.64)"/><g transform="translate(37.882 5.783)"><ellipse class="d" cx="2.003" cy="2.003" rx="2.003" ry="2.003"/><ellipse class="d" cx="2.003" cy="2.003" rx="2.003" ry="2.003" transform="translate(6.951)"/></g><g transform="translate(3.535 14.175)"><path class="e" d="M193.016,252.694a6.8,6.8,0,0,0,6.8,6.8V245.89A6.8,6.8,0,0,0,193.016,252.694Z" transform="translate(-175.699 -236.159)"/><path class="e" d="M54.841,185.625a1.386,1.386,0,0,1-1.386-1.386v-1.588a11.214,11.214,0,0,1-1.551-.643l-1.123,1.123a1.386,1.386,0,0,1-1.96,0l-3.039-3.039a1.386,1.386,0,0,1,0-1.96l1.123-1.123a11.2,11.2,0,0,1-.643-1.551H44.674a1.386,1.386,0,0,1-1.386-1.386v-4.3a1.386,1.386,0,0,1,1.386-1.386h1.588a11.226,11.226,0,0,1,.643-1.551l-1.123-1.123a1.386,1.386,0,0,1,0-1.96l3.039-3.039a1.386,1.386,0,0,1,1.96,0l1.123,1.123a11.2,11.2,0,0,1,1.551-.643v-1.587a1.386,1.386,0,0,1,1.386-1.386h2v-2.406H32.72V188.1H56.841v-2.477Z" transform="translate(-32.72 -155.815)"/></g><path class="f" d="M1.768,24.6A1.767,1.767,0,0,0,0,26.373V72.834A1.767,1.767,0,0,0,1.768,74.6H27.656V71.066H3.535V38.78H27.656V24.6Z" transform="translate(0 -24.605)"/><path class="g" d="M140.714,179.477v1.588a11.223,11.223,0,0,0-1.551.643l-1.123-1.123a1.386,1.386,0,0,0-1.96,0l-3.039,3.039a1.386,1.386,0,0,0,0,1.96l1.123,1.123a11.207,11.207,0,0,0-.643,1.551h-1.588a1.386,1.386,0,0,0-1.386,1.386v4.3a1.386,1.386,0,0,0,1.386,1.386h1.588a11.23,11.23,0,0,0,.643,1.551L133.041,198a1.386,1.386,0,0,0,0,1.96L136.079,203a1.386,1.386,0,0,0,1.96,0l1.123-1.123a11.23,11.23,0,0,0,1.551.643v1.588a1.386,1.386,0,0,0,1.386,1.386h2v-6.47a6.8,6.8,0,1,1,0-13.609v-7.325h-2A1.386,1.386,0,0,0,140.714,179.477Z" transform="translate(-116.444 -161.51)"/><path class="c" d="M262.8,252.694a6.8,6.8,0,0,0-6.8-6.8V259.5A6.8,6.8,0,0,0,262.8,252.694Z" transform="translate(-228.344 -221.984)"/><path class="h" d="M262.8,192.219a6.8,6.8,0,0,1-6.8,6.8v6.47h2.3a1.386,1.386,0,0,0,1.386-1.386V202.52a11.215,11.215,0,0,0,1.551-.643L262.358,203a1.386,1.386,0,0,0,1.96,0l3.039-3.039a1.386,1.386,0,0,0,0-1.96l-1.123-1.123a11.23,11.23,0,0,0,.643-1.551h1.588a1.386,1.386,0,0,0,1.386-1.386v-4.3a1.386,1.386,0,0,0-1.386-1.386h-1.588a11.189,11.189,0,0,0-.643-1.551l1.123-1.123a1.386,1.386,0,0,0,0-1.96l-3.039-3.039a1.386,1.386,0,0,0-1.96,0l-1.123,1.123a11.231,11.231,0,0,0-1.551-.643v-1.588a1.386,1.386,0,0,0-1.386-1.386H256v7.325A6.8,6.8,0,0,1,262.8,192.219Z" transform="translate(-228.344 -161.509)"/></svg>