<svg xmlns="http://www.w3.org/2000/svg" width="49.965" height="50" viewBox="0 0 49.965 50"><defs><style>.a{fill:#dce4ec;}.b{fill:#b5c4d2;}.c{fill:#f9bc35;}.d{fill:#ffde33;}.e{fill:#f39e31;}.f{fill:#ffbc33;}</style></defs><path class="a" d="M2.721,14.97A8.813,8.813,0,0,1,.361,6.978a1.234,1.234,0,0,1,.828-.911,1.21,1.21,0,0,1,1.222.31L4.357,8.323a1.438,1.438,0,0,0,1.056.435h2.07A1.347,1.347,0,0,0,8.5,8.323a1.347,1.347,0,0,0,.435-1.014V5.238A1.437,1.437,0,0,0,8.5,4.182L6.261,1.946A.974.974,0,0,1,6.7.311,8.476,8.476,0,0,1,8.953,0a8.669,8.669,0,0,1,7,3.478,9.19,9.19,0,0,1,1.1,8.592l-.166.5L37.635,33.32c4.348-1.532,7.6-.683,10.021,1.739a9.6,9.6,0,0,1,2.284,8.3,1.027,1.027,0,0,1-1.739.5L46,41.684a1.374,1.374,0,0,0-1.035-.414H43.184a1.77,1.77,0,0,0-1.74,1.76l.021,1.76a1.358,1.358,0,0,0,.395,1.035L43.6,47.564a1.349,1.349,0,0,1-.7,2.278,8.538,8.538,0,0,1-8.468-3.292c-1.677-2.215-2.3-5.28-.932-9.09L12.742,16.709l-.89.311a8.945,8.945,0,0,1-2.94.5A8.688,8.688,0,0,1,2.721,14.97Z" transform="translate(-0.181 0)"/><path class="b" d="M95.469,41.788,62,8.323a1.346,1.346,0,0,0,.435-1.014V5.238A1.437,1.437,0,0,0,62,4.182L59.768,1.946A.974.974,0,0,1,60.2.311,8.476,8.476,0,0,1,62.46,0a8.669,8.669,0,0,1,7,3.478,9.19,9.19,0,0,1,1.1,8.592l-.166.5L91.141,33.32c4.348-1.532,7.6-.683,10.021,1.739a9.6,9.6,0,0,1,2.284,8.3,1.027,1.027,0,0,1-1.739.5l-2.2-2.174a1.374,1.374,0,0,0-1.035-.414H96.69A1.833,1.833,0,0,0,95.469,41.788Z" transform="translate(-53.687 0)"/><path class="a" d="M230.113.7l2.65,2.7a1.488,1.488,0,0,1,.29,1.7L229.8,11.619a1.488,1.488,0,0,1-1.346.807h-3.23L207.87,29.783l-2.4-1.739-2.422-1.718,18.039-18.04V5.055a1.538,1.538,0,0,1,.828-1.325l6.522-3.3A1.48,1.48,0,0,1,230.113.7Z" transform="translate(-183.235 -0.254)"/><path class="b" d="M253.82,18.637l1.325,1.325a1.488,1.488,0,0,1,.29,1.7l-3.251,6.522a1.488,1.488,0,0,1-1.346.807h-3.23L230.253,46.345l-2.4-1.739Z" transform="translate(-205.618 -16.817)"/><path class="c" d="M14.714,261.169,4.2,269.037A9.08,9.08,0,1,0,16.908,281.75l7.888-10.5a1.479,1.479,0,0,0-.145-1.925l-8.033-8.033A1.428,1.428,0,0,0,14.714,261.169Z" transform="translate(-0.534 -235.388)"/><g transform="translate(6.389 21.82)"><path class="d" d="M157.623,236.705a2.926,2.926,0,0,1-2.079.878,2.977,2.977,0,0,1-2.079-.878l-8.257-8.257a2.951,2.951,0,0,1,0-4.158,2.783,2.783,0,0,1,2.05-.849,2.9,2.9,0,0,1,2.079.849l4.158,4.158,4.129,4.129A2.916,2.916,0,0,1,157.623,236.705Z" transform="translate(-136.661 -223.441)"/></g><path class="e" d="M27.707,323.813,45.12,306.4l4.017,4.017a1.479,1.479,0,0,1,.145,1.925l-7.888,10.5A9.069,9.069,0,0,1,27.707,323.813Z" transform="translate(-25.019 -276.478)"/><g transform="translate(6.808 26.827)"><path class="f" d="M203.684,282.97a2.926,2.926,0,0,1-2.079.878,2.977,2.977,0,0,1-2.079-.878l-4.129-4.129,4.158-4.129,4.129,4.129A2.916,2.916,0,0,1,203.684,282.97Z" transform="translate(-183.141 -274.713)"/></g></svg>