<svg xmlns="http://www.w3.org/2000/svg" width="120" height="136.579" viewBox="0 0 120 136.579">
  <g id="icon" transform="translate(-233 -1481)">
    <g id="boy" transform="translate(233 1481)">
      <path id="Path_291" data-name="Path 291" d="M212.7,282.918v7.7L196.849,308.9,181,290.807v-7.889a3.222,3.222,0,0,1,.049-.558,24.292,24.292,0,0,0,31.6,0A3.223,3.223,0,0,1,212.7,282.918Z" transform="translate(-149.301 -222.69)" fill="#ffc380"/>
      <path id="Path_292" data-name="Path 292" d="M271.849,290.619C271.684,290.807,256,308.9,256,308.9c0-11.069,0-6.616,0-20.7a24.265,24.265,0,0,0,15.8-5.841C271.868,282.747,271.849,282.254,271.849,290.619Z" transform="translate(-208.451 -222.69)" fill="#eeac61"/>
      <path id="Path_293" data-name="Path 293" d="M78.548,353.85l23.717-13.7,14.489,2.9a11.653,11.653,0,0,1,9.343,11.4V373.3a3.171,3.171,0,0,1-3.17,3.17H34.17A3.171,3.171,0,0,1,31,373.3V354.444a11.653,11.653,0,0,1,9.343-11.4l14.489-2.9Z" transform="translate(-31 -268.267)" fill="#8fcc48"/>
      <path id="Path_294" data-name="Path 294" d="M303.548,354.444V373.3a3.171,3.171,0,0,1-3.17,3.17H256V353.851l23.717-13.7,14.489,2.9A11.653,11.653,0,0,1,303.548,354.444Z" transform="translate(-208.451 -268.267)" fill="#79b137"/>
      <path id="Path_295" data-name="Path 295" d="M169.4,136.623a9.527,9.527,0,0,1-7.063,9.191,25.362,25.362,0,0,1-49.273,0,9.511,9.511,0,0,1-.723-18.157V125h50.718v2.656a9.526,9.526,0,0,1,6.34,8.967Z" transform="translate(-90.151 -98.584)" fill="#ffdbb3"/>
      <path id="Path_296" data-name="Path 296" d="M287.7,136.623a9.527,9.527,0,0,1-7.062,9.191A25.371,25.371,0,0,1,256,165.152V125h25.359v2.656A9.526,9.526,0,0,1,287.7,136.623Z" transform="translate(-208.452 -98.584)" fill="#ffcf99"/>
      <path id="Path_297" data-name="Path 297" d="M135.379,0H94.17A3.17,3.17,0,0,0,91,3.17V14.793c0,7.317,5.925,13.736,12.68,13.736h47.549V15.849A15.85,15.85,0,0,0,135.379,0Z" transform="translate(-78.32)" fill="#bf7047"/>
      <path id="Path_298" data-name="Path 298" d="M281.359,15.849v12.68H256V0h9.51A15.85,15.85,0,0,1,281.359,15.849Z" transform="translate(-208.452)" fill="#a74f21"/>
      <path id="Path_301" data-name="Path 301" d="M280.241,320.4l-8.03-5.072a3.17,3.17,0,0,0-4.136,1.2l-11.623,15.849a3.17,3.17,0,0,0,1.3,4.466l12.68,6.34a3.17,3.17,0,0,0,4.353-1.639l6.974-17.117A3.17,3.17,0,0,0,280.241,320.4Z" transform="translate(-208.452 -248.43)" fill="#8fcc48"/>
      <path id="Path_302" data-name="Path 302" d="M158.539,332.387l-11.623-15.849a3.17,3.17,0,0,0-4.136-1.2l-8.03,5.072a3.17,3.17,0,0,0-1.518,4.031l6.974,17.117a3.17,3.17,0,0,0,4.353,1.639l12.68-6.34a3.171,3.171,0,0,0,1.3-4.466Z" transform="translate(-111.442 -248.431)" fill="#a8e264"/>
    </g>
    <g id="Shield" transform="translate(292.212 1543.075)">
      <g id="Group_196" data-name="Group 196" transform="translate(0 0)">
        <path id="Path_287" data-name="Path 287" d="M283.043,236.384a3.51,3.51,0,0,1-2.12-.711l-18.858-14.255c-6.169-4.663-9.429-12.3-9.429-22.083V177.548a3.516,3.516,0,0,1,2.067-3.2l26.879-12.153a3.517,3.517,0,0,1,2.9,0l26.879,12.157a3.516,3.516,0,0,1,2.067,3.2v21.791c0,9.778-3.257,17.41-9.419,22.073l-18.842,14.256A3.511,3.511,0,0,1,283.043,236.384Z" transform="translate(-252.636 -161.88)" fill="#4da6ff"/>
      </g>
      <path id="Path_288" data-name="Path 288" d="M411.028,174.368,384.15,162.211a3.5,3.5,0,0,0-1.332-.306V236.4a3.507,3.507,0,0,0,2.017-.708l18.842-14.256c6.162-4.663,9.419-12.3,9.419-22.073V177.571A3.516,3.516,0,0,0,411.028,174.368Z" transform="translate(-352.307 -161.899)" fill="#4596e6"/>
      <g id="Group_197" data-name="Group 197" transform="translate(17.758 25.033)">
        <path id="Path_289" data-name="Path 289" d="M324.278,278.94a4.058,4.058,0,0,1-2.879-1.193l-6.392-6.392a4.072,4.072,0,1,1,5.758-5.758l3.513,3.513,10.477-10.476a4.072,4.072,0,0,1,5.758,5.758l-13.356,13.356A4.059,4.059,0,0,1,324.278,278.94Z" transform="translate(-313.814 -257.441)" fill="#f2f8ff"/>
      </g>
      <path id="Path_290" data-name="Path 290" d="M396.53,258.634a4.071,4.071,0,0,0-5.758,0l-7.953,7.952v11.475a4.126,4.126,0,0,0,.355-.313l13.356-13.356A4.072,4.072,0,0,0,396.53,258.634Z" transform="translate(-352.072 -232.408)" fill="#dfedfc"/>
    </g>
  </g>
</svg>
