<svg xmlns="http://www.w3.org/2000/svg" width="34.235" height="32.096" viewBox="0 0 34.235 32.096"><defs><style>.a{fill:#dce4ec;}.b{fill:#b5c4d2;}.c{fill:#f2f8ff;}.d{fill:#dfedfc;}.e{fill:#ccd7e2;}.f{fill:#a2b4c5;}</style></defs><g transform="translate(0 0)"><path class="a" d="M34.235,19.009V36.06l-2.006,2.006H2.187L0,36.06V19.009A3,3,0,0,1,3.009,16H31.226A3,3,0,0,1,34.235,19.009Z" transform="translate(0 -16)"/><path class="b" d="M273.118,19.009V36.06l-2.006,2.006H256V16h14.109A3,3,0,0,1,273.118,19.009Z" transform="translate(-238.882 -16)"/><path class="c" d="M60.223,47V66.06H30V47a.993.993,0,0,1,1-1H59.22A.993.993,0,0,1,60.223,47Z" transform="translate(-27.994 -43.994)"/><path class="d" d="M271.112,47V66.06H256V46h14.109A.993.993,0,0,1,271.112,47Z" transform="translate(-238.882 -43.994)"/><path class="e" d="M165.822,382.7H151.9l2.006-6.018a.976.976,0,0,1,.943-.682h8.024a.976.976,0,0,1,.943.682Z" transform="translate(-141.744 -351.928)"/><path class="f" d="M260.955,376.682l2.006,6.018H256V376h4.012A.976.976,0,0,1,260.955,376.682Z" transform="translate(-238.882 -351.928)"/><path class="a" d="M34.235,316v3.009a3,3,0,0,1-3.009,3.009H3.009A3,3,0,0,1,0,319.009V316Z" transform="translate(0 -295.94)"/><path class="b" d="M273.118,316v3.009a3,3,0,0,1-3.009,3.009H256V316Z" transform="translate(-238.882 -295.94)"/><path class="a" d="M113.066,467a.993.993,0,0,1-1,1H92A1,1,0,1,1,92,466h20.06A.993.993,0,0,1,113.066,467Z" transform="translate(-84.915 -435.91)"/><path class="b" d="M267.033,467a.993.993,0,0,1-1,1H256V466h10.03A.993.993,0,0,1,267.033,467Z" transform="translate(-238.882 -435.91)"/></g></svg>