<svg xmlns="http://www.w3.org/2000/svg" width="34.062" height="27.255" viewBox="0 0 34.062 27.255"><defs><style>.a{fill:#54ccff;}.b{fill:#ffde33;}.c{fill:#dce4ec;}.d{fill:#ffbc33;}.e{fill:#f9bc35;}.f{fill:#b5c4d2;}.g{fill:#f39e31;}.h{fill:#24344d;}.i{fill:#edf6ff;}.j{fill:#e98f1b;}.k{fill:#132033;}.l{fill:#d6e9ff;}</style></defs><g transform="translate(0 -51.157)"><path class="a" d="M44.115,88H39.963a1.015,1.015,0,0,1-1.015-1.015V84.053a1.015,1.015,0,0,1,1.015-1.015h4.152a1.015,1.015,0,0,1,1.015,1.015v2.933A1.015,1.015,0,0,1,44.115,88Z" transform="translate(-36.357 -29.76)"/><path class="b" d="M171.381,58.242H160.637a1.015,1.015,0,0,1-1.015-1.015V54.7a3.542,3.542,0,0,1,3.538-3.538h5.7A3.542,3.542,0,0,1,172.4,54.7v2.531A1.015,1.015,0,0,1,171.381,58.242Z" transform="translate(-149.003)"/><path class="c" d="M30.035,341.182H4.027A4.031,4.031,0,0,1,0,337.155v-3.486a1.015,1.015,0,0,1,1.015-1.015H33.047a1.015,1.015,0,0,1,1.015,1.015v3.486A4.031,4.031,0,0,1,30.035,341.182Z" transform="translate(0 -262.77)"/><path class="d" d="M258.825,51.157H256v7.085h5.348a1.015,1.015,0,0,0,1.015-1.015V54.7A3.542,3.542,0,0,0,258.825,51.157Z" transform="translate(-238.969 0)"/><path class="e" d="M33.047,142.834H1.015A1.015,1.015,0,0,1,0,141.818V131.156a4.031,4.031,0,0,1,4.027-4.026H30.035a4.031,4.031,0,0,1,4.027,4.026v10.662A1.015,1.015,0,0,1,33.047,142.834Z" transform="translate(0 -70.919)"/><path class="f" d="M272.016,332.655H256v8.528h13a4.031,4.031,0,0,0,4.027-4.027V333.67A1.015,1.015,0,0,0,272.016,332.655Z" transform="translate(-238.969 -262.771)"/><path class="g" d="M269,127.13H256v15.7h16.016a1.015,1.015,0,0,0,1.015-1.015V131.156A4.031,4.031,0,0,0,269,127.13Z" transform="translate(-238.969 -70.919)"/><path class="h" d="M146.774,192.543a7.784,7.784,0,1,1,7.784-7.784A7.793,7.793,0,0,1,146.774,192.543Z" transform="translate(-129.743 -117.447)"/><path class="i" d="M191.414,234a4.6,4.6,0,1,1,4.6-4.6A4.608,4.608,0,0,1,191.414,234Z" transform="translate(-174.383 -162.086)"/><path class="j" d="M394.843,179h-2.166a1.015,1.015,0,1,1,0-2.031h2.166a1.015,1.015,0,0,1,0,2.031Z" transform="translate(-365.606 -117.447)"/><path class="k" d="M263.784,184.758A7.793,7.793,0,0,0,256,176.974v15.569A7.793,7.793,0,0,0,263.784,184.758Z" transform="translate(-238.969 -117.447)"/><path class="l" d="M260.6,229.4a4.608,4.608,0,0,0-4.6-4.6V234A4.608,4.608,0,0,0,260.6,229.4Z" transform="translate(-238.969 -162.086)"/></g></svg>