<svg xmlns="http://www.w3.org/2000/svg" width="31.728" height="31.75" viewBox="0 0 31.728 31.75"><defs><style>.a{fill:#dce4ec;}.b{fill:#b5c4d2;}.c{fill:#f9bc35;}.d{fill:#ffde33;}.e{fill:#f39e31;}.f{fill:#ffbc33;}</style></defs><g transform="translate(0)"><path class="a" d="M1.794,9.506a5.6,5.6,0,0,1-1.5-5.075.783.783,0,0,1,.526-.579.769.769,0,0,1,.776.2L2.832,5.285a.913.913,0,0,0,.67.276H4.818a.855.855,0,0,0,.644-.276.855.855,0,0,0,.276-.644V3.326a.913.913,0,0,0-.276-.671l-1.42-1.42A.619.619,0,0,1,4.318.2,5.382,5.382,0,0,1,5.751,0,5.505,5.505,0,0,1,10.2,2.209a5.836,5.836,0,0,1,.7,5.456l-.105.316L23.964,21.158c2.761-.973,4.825-.434,6.363,1.1a6.1,6.1,0,0,1,1.45,5.272.652.652,0,0,1-1.1.316l-1.4-1.381a.872.872,0,0,0-.657-.263H27.488a1.124,1.124,0,0,0-1.105,1.117l.013,1.118a.862.862,0,0,0,.251.657l1.1,1.1a.857.857,0,0,1-.447,1.446,5.422,5.422,0,0,1-5.377-2.09,5.866,5.866,0,0,1-.592-5.772L8.157,10.61l-.565.2a5.68,5.68,0,0,1-1.867.316A5.517,5.517,0,0,1,1.794,9.506Z" transform="translate(-0.181 0)"/><path class="b" d="M82.332,26.535,61.082,5.285a.855.855,0,0,0,.276-.644V3.326a.913.913,0,0,0-.276-.671l-1.42-1.42A.619.619,0,0,1,59.938.2,5.382,5.382,0,0,1,61.371,0a5.505,5.505,0,0,1,4.444,2.209,5.836,5.836,0,0,1,.7,5.456l-.105.316L79.584,21.158c2.761-.973,4.825-.434,6.363,1.1a6.1,6.1,0,0,1,1.45,5.272.652.652,0,0,1-1.1.316l-1.4-1.381a.872.872,0,0,0-.657-.263H83.108A1.164,1.164,0,0,0,82.332,26.535Z" transform="translate(-55.801 0)"/><path class="a" d="M220.233.546l1.683,1.715a.945.945,0,0,1,.184,1.078l-2.064,4.141a.945.945,0,0,1-.855.513h-2.051L206.109,19.015l-1.525-1.1-1.538-1.091L214.5,5.364V3.313a.977.977,0,0,1,.526-.841l4.141-2.1A.94.94,0,0,1,220.233.546Z" transform="translate(-190.466 -0.264)"/><path class="b" d="M244.342,18.637l.841.842a.945.945,0,0,1,.184,1.078L243.3,24.7a.945.945,0,0,1-.855.513H240.4L229.376,36.232l-1.525-1.1Z" transform="translate(-213.733 -17.481)"/><path class="c" d="M9.552,261.058l-6.679,5a5.766,5.766,0,1,0,8.072,8.072l5.009-6.666a.939.939,0,0,0-.092-1.223l-5.1-5.1A.907.907,0,0,0,9.552,261.058Z" transform="translate(-0.548 -244.687)"/><g transform="translate(8.94 13.856)"><path class="d" d="M152.779,231.864a1.858,1.858,0,0,1-1.32.558,1.89,1.89,0,0,1-1.32-.558L144.9,226.62a1.874,1.874,0,0,1,0-2.64,1.767,1.767,0,0,1,1.3-.539,1.84,1.84,0,0,1,1.32.539l2.64,2.64,2.622,2.622A1.852,1.852,0,0,1,152.779,231.864Z" transform="translate(-144.352 -223.441)"/></g><path class="e" d="M27.707,317.457,38.764,306.4l2.551,2.551a.939.939,0,0,1,.092,1.223L36.4,316.839A5.759,5.759,0,0,1,27.707,317.457Z" transform="translate(-26 -287.4)"/><g transform="translate(12.106 17.035)"><path class="f" d="M200.659,279.956a1.858,1.858,0,0,1-1.32.558,1.89,1.89,0,0,1-1.32-.558l-2.622-2.622,2.64-2.622,2.622,2.622A1.852,1.852,0,0,1,200.659,279.956Z" transform="translate(-195.397 -274.713)"/></g></g></svg>