<svg xmlns="http://www.w3.org/2000/svg" width="66.299" height="79.5" viewBox="0 0 66.299 79.5"><defs><style>.a{fill:#ccd7e2;}.b{fill:#a2b4c5;}.c{fill:#dce4ec;}.d{fill:#b5c4d2;}.e{fill:#39bffb;}.f{fill:#3993fb;}.g{fill:#f2f8ff;}.h{fill:#dfedfc;}.i{fill:#feb627;}.j{fill:#f39e31;}</style></defs><g transform="translate(-42.51)"><path class="a" d="M241,39.77h4.658v9.24H241Z" transform="translate(-167.67 -33.595)"/><path class="b" d="M256,39.77h2.329v9.24H256Z" transform="translate(-180.341 -33.595)"/><path class="c" d="M65.512,86.518a2.329,2.329,0,0,0-3.3,3.291l7.685,7.7a2.329,2.329,0,0,0,3.3-3.291Z" transform="translate(-16.071 -72.507)"/><path class="d" d="M382.632,86.516a2.329,2.329,0,0,0-3.294,0l-7.685,7.7a2.329,2.329,0,0,0,3.3,3.291l7.685-7.7a2.329,2.329,0,0,0,0-3.294Z" transform="translate(-277.461 -72.507)"/><path class="e" d="M108.809,117.487A33.149,33.149,0,1,1,75.659,84.28,33.216,33.216,0,0,1,108.809,117.487Z" transform="translate(0 -71.194)"/><path class="f" d="M289.149,117.487A33.216,33.216,0,0,1,256,150.693V84.28A33.216,33.216,0,0,1,289.149,117.487Z" transform="translate(-180.341 -71.194)"/><path class="c" d="M215.977,3.863a3.865,3.865,0,0,1-3.863,3.865h-10.3a3.864,3.864,0,0,1,0-7.728h10.3a3.863,3.863,0,0,1,3.863,3.863Z" transform="translate(-131.304 0)"/><path class="g" d="M158.642,178.653a21.926,21.926,0,1,1-21.926-21.963A21.971,21.971,0,0,1,158.642,178.653Z" transform="translate(-61.057 -132.36)"/><path class="h" d="M277.926,178.653A21.971,21.971,0,0,1,256,200.617V156.69A21.97,21.97,0,0,1,277.926,178.653Z" transform="translate(-180.341 -132.36)"/><path class="i" d="M253.408,225.113a2.33,2.33,0,0,1-2.329,2.329h-7.75A2.33,2.33,0,0,1,241,225.113V214.019a2.329,2.329,0,0,1,4.658,0v8.765h5.421A2.329,2.329,0,0,1,253.408,225.113Z" transform="translate(-167.67 -178.82)"/><g transform="translate(75.659)"><path class="d" d="M261.15,7.728H256V0h5.15a3.864,3.864,0,0,1,0,7.728Z" transform="translate(-256)"/><path class="j" d="M266.079,225.113a2.33,2.33,0,0,1-2.329,2.329H256V211.69a2.329,2.329,0,0,1,2.329,2.329v8.765h5.421A2.329,2.329,0,0,1,266.079,225.113Z" transform="translate(-256 -178.82)"/></g></g></svg>