<svg xmlns="http://www.w3.org/2000/svg" width="28.598" height="32.132" viewBox="0 0 28.598 32.132">
  <g id="Notification" transform="translate(-1159.402 -63)">
    <g id="icon" transform="translate(1152.627 59.07)">
      <path id="Ring" d="M-1253.548,2.083a1.046,1.046,0,0,1,1.02-1.276,1.039,1.039,0,0,1,1.02.819,2.009,2.009,0,0,0,.4.875,1.543,1.543,0,0,0,1.293.474,1.517,1.517,0,0,0,1.293-.474,2.018,2.018,0,0,0,.4-.875,1.039,1.039,0,0,1,1.02-.819,1.05,1.05,0,0,1,1.02,1.276,3.582,3.582,0,0,1-3.734,2.98A3.588,3.588,0,0,1-1253.548,2.083Zm3.8-2.8h-11.275a1.594,1.594,0,0,1-1.277-2.553c1.237-1.639,3.67-2.587,3.67-9.887,0-7.493,3.3-10.5,6.393-11.227.289-.072.5-.176.5-.473v-.233a1.97,1.97,0,0,1,1.928-1.976h.048a1.97,1.97,0,0,1,1.928,1.976v.233c0,.305.209.4.5.473,3.084.723,6.393,3.734,6.393,11.227,0,7.3,2.434,8.256,3.67,9.887a1.6,1.6,0,0,1-1.253,2.553Zm-.538-22.47a2.818,2.818,0,0,1-1.493.843,5.152,5.152,0,0,0-3.109,2.216,12.322,12.322,0,0,0-1.679,6.971,18.191,18.191,0,0,1-1.148,7.083,9.719,9.719,0,0,1-1.687,2.683.352.352,0,0,0,.266.586h18.728a.332.332,0,0,0,.249-.546,9.824,9.824,0,0,1-1.727-2.723,18.207,18.207,0,0,1-1.148-7.083,12.315,12.315,0,0,0-1.679-6.971,5.149,5.149,0,0,0-3.108-2.216,2.915,2.915,0,0,1-1.51-.86.615.615,0,0,0-.463-.209A.659.659,0,0,0-1250.288-23.19Z" transform="translate(1269.402 31)" fill="#bbcad8"/>
    </g>
    <circle id="Ellipse_4" data-name="Ellipse 4" cx="7" cy="7" r="7" transform="translate(1174 65)" fill="#ff4f33"/>
    <text id="_3" data-name="3" transform="translate(1178 76)" fill="#fff" font-size="11" font-family="SFProDisplay-Regular, SF Pro Display"><tspan x="0" y="0">3</tspan></text>
  </g>
</svg>
