<svg xmlns="http://www.w3.org/2000/svg" xmlns:xlink="http://www.w3.org/1999/xlink" width="25" height="21" viewBox="0 0 25 21"><defs><path id="8mhfa" d="M271 21.34V19h5.63v2.34z"/><path id="8mhfb" d="M278.875 35.344c1.243 0 2.25 1.042 2.25 2.328 0 1.286-1.007 2.328-2.25 2.328s-2.25-1.042-2.25-2.328c0-1.286 1.007-2.328 2.25-2.328z"/><path id="8mhfc" d="M292.344 35.344c1.242 0 2.25 1.042 2.25 2.328 0 1.286-1.008 2.328-2.25 2.328-1.243 0-2.25-1.042-2.25-2.328 0-1.286 1.007-2.328 2.25-2.328z"/><path id="8mhfd" d="M284.47 23.65v-2.31h11.25v2.31z"/><path id="8mhfe" d="M293.84 22.395l2.171.604-2.908 11.27-2.17-.605z"/><path id="8mhff" d="M278.88 34.15v-2.31h14.59v2.31z"/><path id="8mhfg" d="M277.082 20.102l3.49 13.523-2.171.603-3.49-13.523z"/></defs><g><g transform="translate(-271 -19)"><g><use xlink:href="#8mhfa"/></g><g><use xlink:href="#8mhfb"/></g><g><use xlink:href="#8mhfc"/></g><g opacity=".95"><use xlink:href="#8mhfd"/></g><g><use xlink:href="#8mhfe"/></g><g><use xlink:href="#8mhff"/></g><g><use xlink:href="#8mhfg"/></g></g></g></svg>