<?xml version="1.0" encoding="UTF-8"?>
<svg width="25px" height="22px" viewBox="0 0 25 22" version="1.1" xmlns="http://www.w3.org/2000/svg" xmlns:xlink="http://www.w3.org/1999/xlink">
    <defs></defs>
    <g id="Symbols" stroke="none" stroke-width="1" fill="none" fill-rule="evenodd">
        <g id="Header" transform="translate(-1162.000000, -69.000000)" fill="#000" fill-rule="nonzero">
            <g id="Like" transform="translate(1162.000000, 69.000000)">
                <path d="M12.6494024,22 C12.4501992,22 12.250996,22 12.1513944,21.8990826 C12.1513944,21.8990826 12.0517928,21.7981651 12.0517928,21.7981651 L11.752988,21.5963303 C10.9561753,21.0917431 9.16334661,19.7798165 7.8685259,18.7706422 C3.187251,15.0366972 0.796812749,12.412844 0.398406375,10.3944954 C0.199203187,9.68807339 0.0996015936,8.88073394 0,8.0733945 C0,5.85321101 0.796812749,3.73394495 2.29083665,2.22018349 C3.58565737,0.80733945 5.37848606,0.100917431 7.17131474,0.100917431 C9.26294821,0.100917431 11.1553785,0.908256881 12.4501992,2.42201835 C13.7450199,0.908256881 15.6374502,0 17.7290837,0 L17.8286853,0 C21.7131474,0 25,3.43119266 25,7.7706422 C25,8.57798165 24.9003984,9.3853211 24.7011952,10.1926606 C24.3027888,12.1100917 21.9123506,14.9357798 17.4302789,18.6697248 C15.7370518,20.0825688 14.2430279,21.1926606 13.247012,21.8990826 C13.0478088,21.8990826 12.8486056,22 12.6494024,22 Z M7.17131474,2.32110092 C5.87649402,2.32110092 4.6812749,2.82568807 3.68525896,3.83486239 C2.58964143,4.94495413 1.99203187,6.4587156 2.09163347,8.0733945 C2.09163347,8.67889908 2.19123506,9.28440367 2.39043825,9.78899083 C2.58964143,10.6972477 3.68525896,12.7155963 9.16334661,17.0550459 C10.2589641,17.8623853 11.8525896,19.0733945 12.6494024,19.6788991 C13.5458167,19.0733945 14.7410359,18.1651376 16.0358566,17.0550459 C21.314741,12.6146789 22.4103586,10.5963303 22.6095618,9.68807339 C22.8087649,9.08256881 22.9083665,8.47706422 22.9083665,7.87155963 C22.9083665,4.74311927 20.6175299,2.22018349 17.8286853,2.22018349 C17.8286853,2.22018349 17.7290837,2.22018349 17.7290837,2.22018349 C15.936255,2.22018349 14.3426295,3.2293578 13.3466135,4.8440367 C13.1474104,5.14678899 12.8486056,5.34862385 12.4501992,5.34862385 C12.0517928,5.34862385 11.752988,5.14678899 11.5537849,4.8440367 C10.5577689,3.2293578 8.96414343,2.32110092 7.17131474,2.32110092 Z" id="Shape"></path>
            </g>
        </g>
    </g>
</svg>
