<svg xmlns="http://www.w3.org/2000/svg" width="120" height="126.005" viewBox="0 0 120 126.005"><defs><style>.a{fill:#dce4ec;}.b{fill:#b5c4d2;}.c{fill:#8fcc48;}.d{fill:#79b137;}.e{fill:#a8e264;}.f{fill:#ccd7e2;}.g{fill:#fdbf00;}.h{fill:#4da6ff;}.i{fill:#4596e6;}.j{fill:#f2f8ff;}.k{fill:#dfedfc;}</style></defs><g transform="translate(-0.5 0.001)"><path class="a" d="M181.167,150.984H135.7a14.215,14.215,0,0,0-14.209,14.209v28.419A14.215,14.215,0,0,0,135.7,207.822h27.566l16.313,11.1a2.862,2.862,0,0,0,4.433-2.387v-9a14.379,14.379,0,0,0,11.557-13.925V165.193a14.378,14.378,0,0,0-14.4-14.209Zm0,0" transform="translate(-98.064 -122.377)"/><path class="b" d="M353.6,165.194v28.419a14.379,14.379,0,0,1-11.557,13.925v9a2.862,2.862,0,0,1-4.433,2.387l-16.313-11.1h-4.831V150.984H339.2a14.378,14.378,0,0,1,14.4,14.209Zm0,0" transform="translate(-256.1 -122.377)"/><path class="c" d="M60.369,0H14.9A14.378,14.378,0,0,0,.5,14.209V42.817A14.38,14.38,0,0,0,12.056,56.743v8.809a2.862,2.862,0,0,0,4.434,2.387L32.8,57.026H60.368A14.214,14.214,0,0,0,74.578,42.817V14.209A14.215,14.215,0,0,0,60.368,0Zm0,0" transform="translate(0 0)"/><path class="d" d="M233.425,14.209V42.817a14.214,14.214,0,0,1-14.209,14.209H196.481V0h22.735a14.215,14.215,0,0,1,14.209,14.209Zm0,0" transform="translate(-158.847)"/><g transform="translate(17.741 14.209)"><path class="e" d="M119.911,77.834a2.814,2.814,0,0,1-2.842,2.841H94.334a2.842,2.842,0,0,1,0-5.684h22.735A2.814,2.814,0,0,1,119.911,77.834Zm0,0" transform="translate(-91.493 -74.992)"/><path class="e" d="M119.911,138.829a2.814,2.814,0,0,1-2.842,2.842H94.334a2.842,2.842,0,0,1,0-5.684h22.735A2.814,2.814,0,0,1,119.911,138.829Zm0,0" transform="translate(-91.493 -124.431)"/><path class="e" d="M131.278,198.822a2.814,2.814,0,0,1-2.841,2.841h-34.1a2.842,2.842,0,0,1,0-5.684h34.1A2.814,2.814,0,0,1,131.278,198.822Zm0,0" transform="translate(-91.493 -173.056)"/></g><path class="c" d="M277.156,77.834a2.842,2.842,0,1,1-2.841-2.842A2.842,2.842,0,0,1,277.156,77.834Zm0,0" transform="translate(-219.63 -60.783)"/><path class="c" d="M277.156,138.829a2.842,2.842,0,1,1-2.841-2.841A2.842,2.842,0,0,1,277.156,138.829Zm0,0" transform="translate(-219.63 -110.222)"/><path class="f" d="M251.266,348.807a2.814,2.814,0,0,1-2.841,2.842h-34.1a2.842,2.842,0,0,1,0-5.684h34.1A2.814,2.814,0,0,1,251.266,348.807Zm0,0" transform="translate(-171.005 -280.413)"/><path class="c" d="M202.164,141.671h-5.684v-5.684h5.684a2.842,2.842,0,1,1,0,5.684Zm0,0" transform="translate(-158.847 -110.222)"/><path class="c" d="M202.164,80.675h-5.684V74.992h5.684a2.842,2.842,0,1,1,0,5.684Zm0,0" transform="translate(-158.847 -60.783)"/><path class="c" d="M216.374,198.822a2.814,2.814,0,0,1-2.841,2.841H196.481V195.98h17.051A2.814,2.814,0,0,1,216.374,198.822Zm0,0" transform="translate(-158.847 -158.847)"/><path class="g" d="M336.362,348.807a2.814,2.814,0,0,1-2.841,2.842H316.469v-5.684H333.52A2.814,2.814,0,0,1,336.362,348.807Zm0,0" transform="translate(-256.1 -280.413)"/><g transform="translate(59.711 51.5)"><path class="h" d="M283.043,236.384a3.51,3.51,0,0,1-2.12-.711l-18.858-14.255c-6.169-4.663-9.429-12.3-9.429-22.083V177.548a3.516,3.516,0,0,1,2.067-3.2l26.879-12.153a3.517,3.517,0,0,1,2.9,0l26.879,12.157a3.516,3.516,0,0,1,2.067,3.2v21.791c0,9.778-3.257,17.41-9.419,22.073l-18.842,14.256A3.511,3.511,0,0,1,283.043,236.384Z" transform="translate(-252.636 -161.88)"/><path class="i" d="M411.028,174.368,384.15,162.211a3.5,3.5,0,0,0-1.332-.306V236.4a3.507,3.507,0,0,0,2.017-.708l18.842-14.256c6.162-4.663,9.419-12.3,9.419-22.073V177.571A3.516,3.516,0,0,0,411.028,174.368Z" transform="translate(-352.307 -161.899)"/><g transform="translate(17.758 25.033)"><path class="j" d="M324.278,278.94a4.057,4.057,0,0,1-2.879-1.193l-6.392-6.392a4.072,4.072,0,1,1,5.758-5.758l3.513,3.513,10.477-10.476a4.072,4.072,0,0,1,5.758,5.758l-13.356,13.356A4.059,4.059,0,0,1,324.278,278.94Z" transform="translate(-313.814 -257.441)"/></g><path class="k" d="M396.53,258.634a4.071,4.071,0,0,0-5.758,0l-7.952,7.952v11.475a4.125,4.125,0,0,0,.355-.313l13.356-13.356A4.072,4.072,0,0,0,396.53,258.634Z" transform="translate(-352.072 -232.408)"/></g></g></svg>