<svg xmlns="http://www.w3.org/2000/svg" width="120" height="104.89" viewBox="0 0 120 104.89"><defs><style>.a{fill:#dce4ec;}.b{fill:#f9bc35;}.c{fill:#f39e31;}.d{fill:#fff7e6;}.e{fill:#ffedd5;}.f{fill:#4da6ff;}.g{fill:#4596e6;}.h{fill:#f2f8ff;}.i{fill:#dfedfc;}</style></defs><g transform="translate(0 -32.235)"><g transform="translate(13.525 32.235)"><path class="a" d="M144.043,80.128H61.088a3.413,3.413,0,0,1-3.381-3.445V40.109a7.811,7.811,0,0,1,7.729-7.874H139.7a7.811,7.811,0,0,1,7.729,7.874V76.683A3.413,3.413,0,0,1,144.043,80.128Z" transform="translate(-57.707 -32.235)"/></g><g transform="translate(0 46.013)"><path class="b" d="M82,153.712H7.72A7.8,7.8,0,0,1,0,145.848V98.886a7.8,7.8,0,0,1,7.72-7.864H82a7.8,7.8,0,0,1,7.72,7.864v46.962A7.8,7.8,0,0,1,82,153.712Z" transform="translate(0 -91.022)"/></g><path class="c" d="M229.252,91.022H192.333v62.69h36.919a7.8,7.8,0,0,0,7.72-7.864V98.886A7.8,7.8,0,0,0,229.252,91.022Z" transform="translate(-147.255 -45.009)"/><rect class="d" width="89.717" height="15.5" transform="translate(0 59.775)"/><rect class="e" width="44.639" height="15.5" transform="translate(45.078 59.775)"/><g transform="translate(59.212 62.62)"><path class="f" d="M283.043,236.384a3.51,3.51,0,0,1-2.12-.711l-18.858-14.255c-6.169-4.663-9.429-12.3-9.429-22.083V177.548a3.516,3.516,0,0,1,2.067-3.2l26.879-12.153a3.517,3.517,0,0,1,2.9,0l26.879,12.157a3.516,3.516,0,0,1,2.067,3.2v21.791c0,9.778-3.257,17.41-9.419,22.073l-18.842,14.256A3.511,3.511,0,0,1,283.043,236.384Z" transform="translate(-252.636 -161.88)"/></g><path class="g" d="M411.028,174.368,384.15,162.211a3.5,3.5,0,0,0-1.332-.306V236.4a3.507,3.507,0,0,0,2.017-.708l18.842-14.256c6.162-4.663,9.419-12.3,9.419-22.073V177.571A3.516,3.516,0,0,0,411.028,174.368Z" transform="translate(-293.095 -99.279)"/><g transform="translate(76.97 87.654)"><path class="h" d="M324.278,278.94a4.058,4.058,0,0,1-2.879-1.193l-6.392-6.392a4.072,4.072,0,1,1,5.758-5.758l3.513,3.513,10.477-10.476a4.072,4.072,0,0,1,5.758,5.758l-13.356,13.356A4.059,4.059,0,0,1,324.278,278.94Z" transform="translate(-313.814 -257.441)"/></g><path class="i" d="M396.53,258.634a4.071,4.071,0,0,0-5.758,0l-7.952,7.952v11.475a4.13,4.13,0,0,0,.355-.313l13.356-13.356A4.072,4.072,0,0,0,396.53,258.634Z" transform="translate(-292.861 -169.787)"/></g></svg>