<svg xmlns="http://www.w3.org/2000/svg" width="109.667" height="96.387" viewBox="0 0 109.667 96.387"><defs><style>.a{fill:#dce4ec;}.b{fill:#b5c4d2;}.c{fill:#ccd7e2;}.d{fill:#a2b4c5;}.e{fill:#f9bc35;}.f{fill:#f39e31;}</style></defs><g transform="translate(0 -31)"><path class="a" d="M195.98,40.639v6.426a3.182,3.182,0,0,1-3.213,3.213h-3.213V40.639a3.181,3.181,0,0,0-3.213-3.213h-25.7a3.181,3.181,0,0,0-3.213,3.213v9.639h-3.213A3.182,3.182,0,0,1,151,47.064V40.639A9.625,9.625,0,0,1,160.639,31h25.7A9.625,9.625,0,0,1,195.98,40.639Z" transform="translate(-118.657 0)"/><path class="b" d="M268.852,37.426H256V31h12.852a9.626,9.626,0,0,1,9.639,9.639v6.426a3.182,3.182,0,0,1-3.213,3.213h-3.213V40.639A3.181,3.181,0,0,0,268.852,37.426Z" transform="translate(-201.167 0)"/><path class="a" d="M109.667,97.747v70.684a9.626,9.626,0,0,1-9.639,9.639H9.639A9.626,9.626,0,0,1,0,168.431V97.747A3.155,3.155,0,0,1,.964,95.5L17.35,132.382H92.317L108.7,95.5A3.156,3.156,0,0,1,109.667,97.747Z" transform="translate(0 -50.683)"/><path class="b" d="M310.833,97.747v70.684a9.626,9.626,0,0,1-9.639,9.639H256V132.382h37.484L309.869,95.5A3.156,3.156,0,0,1,310.833,97.747Z" transform="translate(-201.167 -50.683)"/><path class="c" d="M112.24,91.964l-9.96,36.884a9.624,9.624,0,0,1-9.317,7.133H23.778a9.624,9.624,0,0,1-9.318-7.133L4.5,91.964A3.154,3.154,0,0,1,6.75,91H109.991A3.154,3.154,0,0,1,112.24,91.964Z" transform="translate(-3.537 -47.148)"/><path class="d" d="M309.869,91.964l-9.96,36.884a9.624,9.624,0,0,1-9.317,7.133H256V91h51.62A3.154,3.154,0,0,1,309.869,91.964Z" transform="translate(-201.167 -47.148)"/><path class="e" d="M209.916,256h-25.7A3.181,3.181,0,0,0,181,259.213v12.852a3.182,3.182,0,0,0,3.213,3.213h25.7a3.182,3.182,0,0,0,3.213-3.213V259.213A3.181,3.181,0,0,0,209.916,256Z" transform="translate(-142.231 -176.807)"/><path class="f" d="M272.064,259.213v12.852a3.182,3.182,0,0,1-3.213,3.213H256V256h12.852A3.181,3.181,0,0,1,272.064,259.213Z" transform="translate(-201.167 -176.807)"/></g></svg>