<svg xmlns="http://www.w3.org/2000/svg" width="30" height="39.385" viewBox="0 0 30 39.385"><defs><style>.a{fill:#dce4ec;}.b{fill:#b5c4d2;}.c{fill:#ffc380;}.d{fill:#ffb766;}.e{fill:#ffdbb3;}.f{fill:#ffcf99;}.g{fill:#4da6ff;}.h{fill:#4596e6;}.i{fill:#54ccff;}.j{fill:#4bb8e6;}.k{fill:#ffde33;}.l{fill:#ffbc33;}.m{fill:#f9bc35;}.n{fill:#f39e31;}</style></defs><path class="a" d="M87.377,291.145,82,289l-3.254,1.015H73.254L70,289l-5.377,2.146A5.765,5.765,0,0,0,61,296.5V305a1.143,1.143,0,0,0,1.154,1.154H89.846A1.143,1.143,0,0,0,91,305v-8.5A5.765,5.765,0,0,0,87.377,291.145Z" transform="translate(-61 -266.768)"/><path class="b" d="M267.377,291.145,262,289l-3.254,1.015H256v16.139h13.846A1.143,1.143,0,0,0,271,305v-8.5A5.765,5.765,0,0,0,267.377,291.145Z" transform="translate(-241 -266.768)"/><path class="c" d="M190,272.385l-5.192,5.192a1.115,1.115,0,0,1-1.615,0L178,272.385l3.254-1.292a1,1,0,0,1,.438-.092h4.615a1,1,0,0,1,.438.092Z" transform="translate(-169.001 -250.154)"/><path class="d" d="M258.308,271H256v6.923a1.082,1.082,0,0,0,.808-.346L262,272.385l-3.254-1.292A1,1,0,0,0,258.308,271Z" transform="translate(-241 -250.154)"/><path class="e" d="M166.693,160.99H151.461a8.077,8.077,0,1,0,15.232,0Z" transform="translate(-144.077 -148.606)"/><path class="f" d="M256,160.99v10.77a8.08,8.08,0,0,0,7.616-10.77Z" transform="translate(-241 -148.606)"/><path class="g" d="M166,9.308H152.154A1.153,1.153,0,0,1,151,8.154V5.846A5.842,5.842,0,0,1,156.769,0h4.615a5.842,5.842,0,0,1,5.769,5.846V8.154A1.153,1.153,0,0,1,166,9.308Z" transform="translate(-144.077)"/><path class="h" d="M258.308,0H256V9.308h6.923a1.153,1.153,0,0,0,1.154-1.154V5.846A5.842,5.842,0,0,0,258.308,0Z" transform="translate(-241)"/><path class="i" d="M140.615,97.923H122.154A1.153,1.153,0,0,1,121,96.769,5.776,5.776,0,0,1,126.769,91H136a5.776,5.776,0,0,1,5.769,5.769A1.153,1.153,0,0,1,140.615,97.923Z" transform="translate(-116.385 -84)"/><path class="j" d="M260.615,91H256v6.923h9.231a1.153,1.153,0,0,0,1.154-1.154A5.776,5.776,0,0,0,260.615,91Z" transform="translate(-241 -84)"/><path class="k" d="M141.769,365.615l-2.429-3.978a1.154,1.154,0,0,0-1.032-.638H124.462a1.154,1.154,0,0,0-1.032.638L121,365.615,122.731,368h17.307Z" transform="translate(-116.385 -333.231)"/><path class="l" d="M262.923,361H256v7h8.653l1.732-2.385-2.429-3.978A1.154,1.154,0,0,0,262.923,361Z" transform="translate(-241 -333.231)"/><path class="m" d="M140.615,428H122.154A1.154,1.154,0,0,1,121,426.846V421h20.769v5.846A1.154,1.154,0,0,1,140.615,428Z" transform="translate(-116.385 -388.615)"/><path class="n" d="M256,428h9.231a1.154,1.154,0,0,0,1.154-1.154V421H256Z" transform="translate(-241 -388.615)"/></svg>