<svg xmlns="http://www.w3.org/2000/svg" width="38" height="19.887" viewBox="0 0 38 19.887"><defs><style>.a{fill:#b5c4d2;}.b{fill:#dce4ec;}.c{fill:#bddeff;}.d{fill:#d7ebff;}.e{fill:#f39e31;}.f{fill:#f9bc35;}.g{fill:#4596e6;}.h{fill:#4da6ff;}.i{fill:#132033;}.j{fill:#24344d;}</style></defs><path class="a" d="M351.668,166.521l-3.328-5.769a1.213,1.213,0,0,0-1.051-.607h-6.364a1.213,1.213,0,0,0-1.213,1.213v10.7a1.213,1.213,0,1,0,2.426,0v-.009L349.4,172a1.213,1.213,0,0,0,2.426-.009v-4.859A1.214,1.214,0,0,0,351.668,166.521Z" transform="translate(-314.499 -157.316)"/><path class="b" d="M345.782,160.145h-4.857a1.213,1.213,0,0,0-1.213,1.213v10.7a1.213,1.213,0,1,0,2.426,0v-.009l3.627-.055Z" transform="translate(-314.499 -157.316)"/><path class="c" d="M351.668,166.521l-3.328-5.769a1.213,1.213,0,0,0-1.051-.607h-6.364a1.213,1.213,0,0,0-1.213,1.213v5.314h12.029A1.216,1.216,0,0,0,351.668,166.521Z" transform="translate(-314.499 -157.316)"/><path class="d" d="M345.772,160.145h-4.846a1.213,1.213,0,0,0-1.213,1.213v5.314h6.059Z" transform="translate(-314.5 -157.316)"/><path class="e" d="M37.931,122.027H13.64a1.213,1.213,0,0,0-1.213,1.213v14.272a1.213,1.213,0,0,0,2.426,0H36.718a1.213,1.213,0,0,0,2.426,0V123.24A1.213,1.213,0,0,0,37.931,122.027Z" transform="translate(-11.505 -122.027)"/><path class="f" d="M25.785,122.027H13.64a1.213,1.213,0,0,0-1.213,1.213v14.272a1.213,1.213,0,0,0,2.426,0H25.786V122.027Z" transform="translate(-11.505 -122.027)"/><path class="g" d="M36.787,316.755H1.213a1.213,1.213,0,0,1,0-2.426H36.787a1.213,1.213,0,1,1,0,2.426Z" transform="translate(0 -300.057)"/><path class="h" d="M14.281,316.755H1.213a1.213,1.213,0,0,1,0-2.426H14.281v2.426Z" transform="translate(0 -300.057)"/><path class="i" d="M70.792,290.142a4,4,0,1,1,4-4A4.006,4.006,0,0,1,70.792,290.142Z" transform="translate(-61.833 -270.256)"/><path class="j" d="M70.792,290.142a4,4,0,1,1,0-8Z" transform="translate(-61.833 -270.256)"/><circle class="a" cx="1.613" cy="1.613" r="1.613" transform="translate(7.346 14.272)"/><path class="b" d="M100.591,317.555a1.613,1.613,0,0,1,0-3.225Z" transform="translate(-91.632 -300.058)"/><path class="i" d="M371.578,290.142a4,4,0,1,1,4-4A4.006,4.006,0,0,1,371.578,290.142Z" transform="translate(-340.295 -270.256)"/><path class="j" d="M371.578,290.142a4,4,0,0,1,0-8Z" transform="translate(-340.295 -270.256)"/><circle class="a" cx="1.613" cy="1.613" r="1.613" transform="translate(29.67 14.272)"/><path class="b" d="M401.379,317.555a1.613,1.613,0,0,1,0-3.225Z" transform="translate(-370.096 -300.058)"/></svg>