<svg xmlns="http://www.w3.org/2000/svg" width="31" height="40.45" viewBox="0 0 31 40.45"><defs><style>.a{fill:#dce4ec;}.b{fill:#b5c4d2;}.c{fill:#ffbc33;}.d{fill:#ffde33;}.e{fill:#f9bc35;}.f{fill:#f39e31;}</style></defs><g transform="translate(0.235 0)"><path class="a" d="M228.37,0A2.37,2.37,0,0,0,226,2.37V23.859h4.74V2.37A2.37,2.37,0,0,0,228.37,0Z" transform="translate(-213.041)"/><path class="b" d="M258.37,2.37A2.37,2.37,0,0,0,256,0V23.859h2.37Z" transform="translate(-240.671)"/><path class="c" d="M227.185,377,226,387.666h4.71l3.026-1.952L234.3,377Z" transform="translate(-213.041 -347.215)"/><path class="d" d="M152.185,377,151,387.666h4.71l2.936-1.31L159.3,377Z" transform="translate(-143.967 -347.215)"/><path class="e" d="M104.036,242a8.3,8.3,0,0,0-8.3,8.3v7.11a3.559,3.559,0,0,1-3.555,3.555,1.185,1.185,0,1,0,0,2.37H95.74a3.559,3.559,0,0,0,3.555-3.555v-4.74a1.185,1.185,0,0,1,2.37,0v4.74a5.868,5.868,0,0,1-1.215,3.555h1.215a3.591,3.591,0,0,0,3.555-3.555v-4.74a1.185,1.185,0,0,1,2.37,0v4.74a5.868,5.868,0,0,1-1.215,3.555h.03a5.932,5.932,0,0,0,5.925-5.925V250.3A8.3,8.3,0,0,0,104.036,242Z" transform="translate(-88.707 -222.881)"/><g transform="translate(15.329 17.425)"><path class="f" d="M257.185,259.776v-4.74a1.185,1.185,0,0,1,2.37,0v4.74a5.868,5.868,0,0,1-1.215,3.555h.03a5.932,5.932,0,0,0,5.925-5.925V250.3A8.3,8.3,0,0,0,256,242v20.407A3.534,3.534,0,0,0,257.185,259.776Z" transform="translate(-256 -240.306)"/><ellipse class="c" cx="1.5" cy="0.5" rx="1.5" ry="0.5" transform="translate(7.436 0.33)"/><ellipse class="c" cx="1.5" cy="1" rx="1.5" ry="1" transform="translate(10.436 13.33)"/><ellipse class="c" cx="1" cy="1.5" rx="1" ry="1.5" transform="translate(13.436 6.33)"/></g><ellipse class="d" cx="1.5" cy="0.5" rx="1.5" ry="0.5" transform="translate(4.765 17.755)"/><circle class="d" cx="1.5" cy="1.5" r="1.5" transform="translate(-0.235 23.755)"/><circle class="d" cx="1" cy="1" r="1" transform="translate(2.765 30.755)"/></g></svg>