<svg xmlns="http://www.w3.org/2000/svg" width="1005.068" height="1030.906" viewBox="0 0 1005.068 1030.906">
  <g id="bg_pic" data-name="bg pic" transform="translate(-803.355 233.444)">
    <path id="Path_187" data-name="Path 187" d="M376.928-85.1c59.991,20.208,121.287,53.16,179.807,101.424,222.5,183.508,202.5,376,94.387,486.239C578.8,576.314,378.517,637.907,212.859,629.893,211.269,629-51.5,154.954-52.468,153.205-51.593,152.72,374.736-84.741,376.928-85.1Z" transform="matrix(-0.485, 0.875, -0.875, -0.485, 1708.559, 118.165)" fill="#c6ddff" opacity="0.26"/>
    <path id="Path_185" data-name="Path 185" d="M-49.63-56.527c52.548-65.028,202.966-86.7,330.4,18.392s85.39,261.426,0,311.347-233.51,77.837-311.347,0S-102.177,8.5-49.63-56.527Z" transform="translate(1068.663 233.055)" fill="#abcdff" opacity="0.3"/>
    <path id="Path_186" data-name="Path 186" d="M-62.454-74.262c35.482-43.909,137.048-58.545,223.091,12.419s57.658,176.522,0,210.229-157.672,52.557-210.229,0S-97.936-30.354-62.454-74.262Z" transform="translate(1093.959 312.338)" fill="#aabeff" opacity="0.3"/>
    <g id="Icon" transform="translate(936.69 55.222)">
      <path id="Path_184" data-name="Path 184" d="M7.61,93.575l10.111.047c3.818.018,6.895-2.4,6.872-5.4L23.937.111,0,0,.656,88.107C.678,91.109,3.792,93.558,7.61,93.575Z" transform="matrix(0.793, -0.609, 0.609, 0.793, 282.053, 408.918)" fill="#3993fb"/>
      <path id="Path_80" data-name="Path 80" d="M177.591,294.4l-21.085,15.979a6.132,6.132,0,0,1-8.526-1.114L138.017,296.5l-16.943-21.818,30.734-23.293,10.035,12.926,16.873,21.66A5.957,5.957,0,0,1,177.591,294.4Z" transform="translate(124.542 100.306)" fill="#f9bc35"/>
      <path id="Path_81" data-name="Path 81" d="M182.224,264.315c-4.269,9.938-11.609,22.431-23.825,32.185l-16.943-21.818,30.734-23.293Z" transform="translate(104.16 100.306)" fill="#f39e31"/>
      <g id="Group_64" data-name="Group 64" transform="translate(92.31 178.778)">
        <path id="Path_82" data-name="Path 82" d="M326.62,220.474a106.756,106.756,0,0,1-19.359,150.993c-47.552,36.417-115.981,27.851-152.838-19.125a106.757,106.757,0,0,1,19.354-151C221.331,164.928,289.758,173.5,326.62,220.474Zm-13.2,10.111c-31.158-39.71-89.205-46.978-129.4-16.2a90.487,90.487,0,0,0-16.387,127.841c31.156,39.708,89.2,46.976,129.4,16.194A90.487,90.487,0,0,0,313.415,230.586Z" transform="translate(-131.577 -178.778)" fill="#3993fb"/>
        <path id="Path_83" data-name="Path 83" d="M319.85,253.315c13.13,48.536-16.158,98.581-65.291,111.552a93.614,93.614,0,0,1-12.658,2.427,92.989,92.989,0,0,1-62.133-14.579,90.547,90.547,0,0,1-38.124-52.351c-13.132-48.54,16.155-98.586,65.288-111.559a93.819,93.819,0,0,1,14.092-2.591,93.169,93.169,0,0,1,77.134,28.458,90.279,90.279,0,0,1,21.692,38.643Z" transform="translate(-121.804 -169.208)" fill="#fff" opacity="0.4"/>
        <path id="Path_84" data-name="Path 84" d="M285.194,195.337,193.076,352.715a91.081,91.081,0,0,1-33.371-39l74.627-127.5A92.866,92.866,0,0,1,285.194,195.337Z" transform="translate(-135.111 -169.208)" fill="#fff" opacity="0.4"/>
        <path id="Path_85" data-name="Path 85" d="M247.371,224.462,173.608,350.491a92.591,92.591,0,0,1-32.065-1.724l88.321-150.9A90.363,90.363,0,0,1,247.371,224.462Z" transform="translate(-53.51 -152.405)" fill="#fff" opacity="0.4"/>
      </g>
    </g>
  </g>
</svg>
