<svg xmlns="http://www.w3.org/2000/svg" width="18" height="18" viewBox="0 0 18 18"><g><g><path fill="#bccbd9" d="M15.973 8.16l-.884 5.847c-.08.536-.562.934-1.125.934h-8.64V8.518l1.568-1.212c.04-.02.06-.06.1-.08C7.876 6.192 8.4 4.9 8.42 3.55V1.163h.361c.583 0 1.045.457 1.045 1.034v3.717c0 .338.261.597.603.597h4.079c.683 0 1.265.457 1.446 1.093.04.179.04.358.02.556zM4.12 15.974H1.206v-8.29h2.913zM14.487 5.318H11.03V2.197A2.235 2.235 0 0 0 8.78-.03h-.362c-.663 0-1.206.536-1.206 1.192V3.53A4.544 4.544 0 0 1 6.108 6.39l-.783.616a.604.604 0 0 0-.603-.516H.602A.589.589 0 0 0 0 7.087v9.484c0 .338.261.596.603.596h4.119a.589.589 0 0 0 .603-.596v-.438h8.64c1.144 0 2.129-.815 2.31-1.928l.884-5.846c.06-.358.06-.735-.04-1.073-.322-1.173-1.407-1.968-2.632-1.968z"/></g></g></svg>