<svg xmlns="http://www.w3.org/2000/svg" width="41" height="41" viewBox="0 0 41 41"><defs><linearGradient id="m4fqa" x1="9" x2="35" y1="35.7" y2="10.7" gradientUnits="userSpaceOnUse"><stop offset="0" stop-color="#feb627"/><stop offset="1" stop-color="#ffd91a"/></linearGradient></defs><g><g><path fill="url(#m4fqa)" d="M40.942 15.728c-.139-.503-.596-1.055-1.14-1.14-1.443-.233-2.885-.466-4.328-.695-2.3-.372-4.602-.74-6.903-1.112-.314-.049-.625-.102-.935-.151l-1.717-3.42c-1.087-2.163-2.17-4.325-3.257-6.487-.25-.498-.499-.997-.752-1.495a1.28 1.28 0 0 0-.241-.323 1.3 1.3 0 0 0-.352-.274c-.38-.2-.837-.302-1.258-.163a1.223 1.223 0 0 0-.156.06c-.081.034-.16.07-.229.111-.004 0-.004.004-.008.004a1.408 1.408 0 0 0-.576.58c-.678 1.357-1.36 2.71-2.04 4.067l-3.256 6.486c-.144.282-.282.564-.425.85-1.227.196-2.453.396-3.679.588-2.3.372-4.601.74-6.902 1.112l-1.59.257c-.544.086-1.001.638-1.14 1.14-.156.56.008 1.182.42 1.59 1.063 1.05 2.126 2.097 3.188 3.147 1.692 1.672 3.388 3.343 5.08 5.019.196.192.389.384.585.58-.18 1.149-.36 2.297-.536 3.445l-1.103 7.087c-.086.54-.168 1.083-.253 1.622-.045.29-.082.58 0 .87.094.344.306.634.584.85.531.414 1.226.442 1.815.128 1.29-.683 2.586-1.361 3.878-2.044l6.183-3.261.601-.319c1.018.536 2.035 1.07 3.053 1.61l6.183 3.262c.474.249.948.502 1.426.752.589.31 1.28.286 1.815-.127.229-.18.388-.384.503-.654.155-.364.143-.674.081-1.063-.233-1.487-.465-2.975-.694-4.462l-1.104-7.087c-.032-.2-.061-.404-.094-.605.87-.858 1.737-1.716 2.608-2.574 1.692-1.672 3.388-3.343 5.08-5.019l1.164-1.153c.413-.408.577-1.03.421-1.59z"/></g></g></svg>