<svg xmlns="http://www.w3.org/2000/svg" width="69.076" height="72.4" viewBox="0 0 69.076 72.4"><defs><style>.a{fill:#feb627;}.b{fill:#f39e31;}.c{fill:#f2f8ff;}.d{fill:#dfedfc;}</style></defs><path class="a" d="M34.538,72.4a2.235,2.235,0,0,1-1.314-.426l-8.341-6.061H14.573a2.235,2.235,0,0,1-2.126-1.544L9.262,54.565.921,48.5a2.234,2.234,0,0,1-.811-2.5L3.3,36.2.109,26.4a2.235,2.235,0,0,1,.812-2.5l8.341-6.061,3.186-9.805a2.235,2.235,0,0,1,2.126-1.544H24.883L33.224.427a2.237,2.237,0,0,1,2.627,0l8.341,6.061H54.5a2.234,2.234,0,0,1,2.125,1.544l3.186,9.805L68.154,23.9a2.234,2.234,0,0,1,.811,2.5L65.779,36.2l3.186,9.805a2.234,2.234,0,0,1-.811,2.5l-8.341,6.061L56.627,64.37A2.234,2.234,0,0,1,54.5,65.914H44.192l-8.341,6.061a2.236,2.236,0,0,1-1.314.426Zm0,0" transform="translate(0 -0.001)"/><path class="b" d="M245.559,71.972l8.341-6.06h10.31a2.235,2.235,0,0,0,2.125-1.544l3.186-9.806,8.341-6.06a2.234,2.234,0,0,0,.811-2.5L275.488,36.2l3.186-9.805a2.234,2.234,0,0,0-.811-2.5l-8.341-6.061L266.335,8.03a2.234,2.234,0,0,0-2.125-1.544H253.9L245.559.426A2.236,2.236,0,0,0,244.246,0V72.4a2.233,2.233,0,0,0,1.314-.427Zm0,0" transform="translate(-209.708 0.001)"/><path class="c" d="M140.232,163.645a7.445,7.445,0,1,1,5.267-2.178A7.427,7.427,0,0,1,140.232,163.645Zm0-10.423a2.978,2.978,0,1,0,2.106.871A2.97,2.97,0,0,0,140.232,153.222Zm0,0" transform="translate(-114.01 -127.72)"/><path class="d" d="M257.852,281.264a7.445,7.445,0,1,1,5.267-2.178h0A7.425,7.425,0,0,1,257.852,281.264Zm0-10.423a2.978,2.978,0,1,0,2.107.871A2.97,2.97,0,0,0,257.852,270.841Zm0,0" transform="translate(-214.998 -228.707)"/><path class="c" d="M147.618,189.311a2.235,2.235,0,0,1-1.58-3.815l23.49-23.49a2.235,2.235,0,0,1,3.16,3.16l-23.49,23.49a2.23,2.23,0,0,1-1.58.655Zm0,0" transform="translate(-124.825 -138.535)"/><path class="d" d="M254.411,162.006l-10.165,10.165v6.32l13.325-13.325a2.235,2.235,0,0,0-3.16-3.16Zm0,0" transform="translate(-209.708 -138.535)"/></svg>