<svg xmlns="http://www.w3.org/2000/svg" width="65.644" height="86.179" viewBox="0 0 65.644 86.179"><defs><style>.a{fill:#8fcc48;}.b{fill:#79b137;}.c{fill:#f2f8ff;}.d{fill:#dfedfc;}</style></defs><path class="a" d="M63.12,10.267H57.212A32.109,32.109,0,0,1,34.59.757a2.441,2.441,0,0,0-3.535,0,32.109,32.109,0,0,1-22.622,9.51H2.525A2.5,2.5,0,0,0,0,12.792v30.3C0,65.762,16.513,76.332,27.419,83.2c1.414.909,2.777,1.717,3.989,2.575a2.675,2.675,0,0,0,2.829,0c1.161-.807,2.474-1.615,3.888-2.525,10.957-6.867,27.52-17.437,27.52-40.16v-30.3a2.5,2.5,0,0,0-2.525-2.525Zm0,0" transform="translate(-0.001 0)"/><path class="b" d="M227.822,12.792v30.3c0,22.723-16.563,33.293-27.52,40.16-1.414.909-2.727,1.717-3.888,2.525a2.86,2.86,0,0,1-1.414.4V0a2.369,2.369,0,0,1,1.767.757,32.109,32.109,0,0,0,22.622,9.51H225.3a2.5,2.5,0,0,1,2.525,2.525Zm0,0" transform="translate(-162.178 0)"/><path class="c" d="M82.723,121a22.723,22.723,0,1,0,22.723,22.723A22.757,22.757,0,0,0,82.723,121Zm0,0" transform="translate(-49.901 -100.634)"/><path class="d" d="M217.723,143.723A22.757,22.757,0,0,1,195,166.446V121A22.757,22.757,0,0,1,217.723,143.723Zm0,0" transform="translate(-162.178 -100.634)"/><path class="a" d="M144.49,215.292l-12.624,12.624a2.441,2.441,0,0,1-3.535,0l-7.574-7.574a2.5,2.5,0,0,1,3.535-3.535l5.807,5.756,2.525-2.525,8.332-8.281a2.5,2.5,0,0,1,3.534,3.535Zm0,0" transform="translate(-99.802 -175.485)"/><path class="b" d="M206.866,215.292,195,227.158v-7.12l8.332-8.281a2.5,2.5,0,0,1,3.535,3.535Zm0,0" transform="translate(-162.178 -175.485)"/></svg>