<svg xmlns="http://www.w3.org/2000/svg" width="53.506" height="42.814" viewBox="0 0 53.506 42.814"><defs><style>.a{fill:#54ccff;}.b{fill:#ffde33;}.c{fill:#dce4ec;}.d{fill:#ffbc33;}.e{fill:#f9bc35;}.f{fill:#b5c4d2;}.g{fill:#f39e31;}.h{fill:#24344d;}.i{fill:#edf6ff;}.j{fill:#e98f1b;}.k{fill:#132033;}.l{fill:#d6e9ff;}</style></defs><g transform="translate(0 -51.157)"><path class="a" d="M47.064,90.835H40.543a1.6,1.6,0,0,1-1.595-1.595V84.633a1.6,1.6,0,0,1,1.595-1.595h6.521a1.6,1.6,0,0,1,1.595,1.595V89.24A1.6,1.6,0,0,1,47.064,90.835Z" transform="translate(-34.878 -28.549)"/><path class="b" d="M178.094,62.286H161.217a1.6,1.6,0,0,1-1.595-1.595V56.715a5.564,5.564,0,0,1,5.558-5.558h8.951a5.564,5.564,0,0,1,5.558,5.558v3.976A1.6,1.6,0,0,1,178.094,62.286Z" transform="translate(-142.941)"/><path class="c" d="M47.181,346.05H6.325A6.333,6.333,0,0,1,0,339.725v-5.476a1.6,1.6,0,0,1,1.595-1.595H51.911a1.6,1.6,0,0,1,1.595,1.595v5.476A6.333,6.333,0,0,1,47.181,346.05Z" transform="translate(0 -252.079)"/><path class="d" d="M260.437,51.157H256V62.286h8.4A1.6,1.6,0,0,0,266,60.691V56.715A5.564,5.564,0,0,0,260.437,51.157Z" transform="translate(-229.247 0)"/><path class="e" d="M51.911,151.8H1.595A1.6,1.6,0,0,1,0,150.2V133.454a6.332,6.332,0,0,1,6.325-6.324H47.181a6.332,6.332,0,0,1,6.325,6.324V150.2A1.6,1.6,0,0,1,51.911,151.8Z" transform="translate(0 -68.033)"/><path class="f" d="M281.158,332.655H256v13.4h20.428a6.333,6.333,0,0,0,6.325-6.325V334.25A1.6,1.6,0,0,0,281.158,332.655Z" transform="translate(-229.247 -252.08)"/><path class="g" d="M276.428,127.13H256V151.8h25.158a1.6,1.6,0,0,0,1.595-1.595V133.454A6.332,6.332,0,0,0,276.428,127.13Z" transform="translate(-229.247 -68.034)"/><path class="h" d="M151.218,201.43A12.228,12.228,0,1,1,163.446,189.2,12.242,12.242,0,0,1,151.218,201.43Z" transform="translate(-124.465 -112.669)"/><path class="i" d="M194.042,239.256a7.231,7.231,0,1,1,7.231-7.231A7.239,7.239,0,0,1,194.042,239.256Z" transform="translate(-167.288 -155.492)"/><path class="j" d="M396.659,180.164h-3.4a1.595,1.595,0,1,1,0-3.19h3.4a1.595,1.595,0,1,1,0,3.19Z" transform="translate(-350.732 -112.669)"/><path class="k" d="M268.228,189.2A12.242,12.242,0,0,0,256,176.974V201.43A12.242,12.242,0,0,0,268.228,189.2Z" transform="translate(-229.247 -112.669)"/><path class="l" d="M263.231,232.026A7.239,7.239,0,0,0,256,224.8v14.461A7.239,7.239,0,0,0,263.231,232.026Z" transform="translate(-229.247 -155.492)"/></g></svg>