<svg xmlns="http://www.w3.org/2000/svg" xmlns:xlink="http://www.w3.org/1999/xlink" width="48" height="46.677" viewBox="0 0 48 46.677"><defs><style>.a{fill:url(#a);}</style><linearGradient id="a" x1="0.22" y1="0.885" x2="0.854" y2="0.258" gradientUnits="objectBoundingBox"><stop offset="0" stop-color="#feb627"/><stop offset="1" stop-color="#ffd91a"/></linearGradient></defs><path class="a" d="M58.318,41.974a1.874,1.874,0,0,0-1.335-1.335q-2.533-.409-5.067-.813-4.041-.653-8.081-1.3c-.368-.057-.732-.12-1.1-.177l-2.01-4q-1.909-3.8-3.813-7.593c-.292-.584-.584-1.167-.88-1.751a1.5,1.5,0,0,0-.282-.378,1.522,1.522,0,0,0-.411-.321,1.915,1.915,0,0,0-1.474-.191,1.432,1.432,0,0,0-.182.072,1.987,1.987,0,0,0-.268.129s0,0-.01,0a1.648,1.648,0,0,0-.675.679q-1.191,2.383-2.387,4.761-1.909,3.8-3.813,7.593c-.167.33-.33.66-.5,1-1.435.23-2.871.464-4.306.689q-4.041.653-8.081,1.3l-1.861.3a1.874,1.874,0,0,0-1.335,1.335,1.924,1.924,0,0,0,.493,1.861q1.866,1.844,3.732,3.684,2.971,2.935,5.947,5.875c.23.225.455.45.684.679q-.316,2.017-.627,4.033l-1.292,8.3c-.1.632-.2,1.268-.3,1.9a2.362,2.362,0,0,0,0,1.019,1.909,1.909,0,0,0,.684,1,1.93,1.93,0,0,0,2.124.148q2.268-1.2,4.541-2.392l7.239-3.818.7-.373q1.787.94,3.574,1.885L45.2,69.581c.555.292,1.11.588,1.67.88a1.939,1.939,0,0,0,2.124-.148,1.856,1.856,0,0,0,.589-.766,2.082,2.082,0,0,0,.1-1.244q-.409-2.612-.813-5.225l-1.292-8.3c-.038-.234-.072-.474-.11-.708q1.529-1.507,3.053-3.014,2.971-2.935,5.947-5.875l1.364-1.349A1.925,1.925,0,0,0,58.318,41.974Z" transform="translate(-10.386 -24.034)"/></svg>